<?xml version="1.0" encoding="UTF-8" standalone="no"?>
<!-- Created with Inkscape (http://www.inkscape.org/) -->
<svg xmlns:rdf="http://www.w3.org/1999/02/22-rdf-syntax-ns#" xmlns="http://www.w3.org/2000/svg" xmlns:cc="http://creativecommons.org/ns#" xmlns:xlink="http://www.w3.org/1999/xlink" xmlns:dc="http://purl.org/dc/elements/1.1/" xmlns:svg="http://www.w3.org/2000/svg" xmlns:inkscape="http://www.inkscape.org/namespaces/inkscape" xmlns:sodipodi="http://sodipodi.sourceforge.net/DTD/sodipodi-0.dtd" xmlns:ns1="http://sozi.baierouge.fr" id="svg2" viewBox="0 0 514.44 583.59" version="1.0" inkscape:version="0.91 r13725">
  <defs id="defs4">
    <linearGradient id="linearGradient3664">
      <stop id="stop3666" style="stop-color:#1c1814" offset="0"/>
      <stop id="stop3668" style="stop-color:#563e2c" offset="1"/>
    </linearGradient>
    <filter id="filter3467" height="2.0693" width="1.3092" color-interpolation-filters="sRGB" y="-.53466" x="-.15458">
      <feGaussianBlur id="feGaussianBlur3469" stdDeviation="12.264412"/>
    </filter>
    <filter id="filter3540" height="2.1158" width="1.212" color-interpolation-filters="sRGB" y="-.55792" x="-.10598">
      <feGaussianBlur id="feGaussianBlur3542" stdDeviation="13.795439"/>
    </filter>
    <filter id="filter3636" height="1.2888" width="1.1929" color-interpolation-filters="sRGB" y="-.14442" x="-.096467">
      <feGaussianBlur id="feGaussianBlur3638" stdDeviation="7.3549867"/>
    </filter>
    <filter id="filter3848" height="2.6153" width="1.8197" color-interpolation-filters="sRGB" y="-.80763" x="-.40984">
      <feGaussianBlur id="feGaussianBlur3850" stdDeviation="5.778783"/>
    </filter>
    <filter id="filter3935" color-interpolation-filters="sRGB">
      <feGaussianBlur id="feGaussianBlur3937" stdDeviation="6.5055802"/>
    </filter>
    <filter id="filter3959" height="1.2622" width="1.105" color-interpolation-filters="sRGB" y="-.13110" x="-.052524">
      <feGaussianBlur id="feGaussianBlur3961" stdDeviation="9.8325891"/>
    </filter>
    <filter id="filter3849" height="1.4679" width="1.1665" color-interpolation-filters="sRGB" y="-.23395" x="-.083269">
      <feGaussianBlur id="feGaussianBlur3851" stdDeviation="17.545981"/>
    </filter>
    <filter id="filter4174" height="4.1023" width="3.961" color-interpolation-filters="sRGB" y="-1.5512" x="-1.4805">
      <feGaussianBlur id="feGaussianBlur4176" stdDeviation="5.8019302"/>
    </filter>
    <filter id="filter4178" height="5.0477" width="2.3965" color-interpolation-filters="sRGB" y="-2.0238" x="-.69823">
      <feGaussianBlur id="feGaussianBlur4180" stdDeviation="5.8019302"/>
    </filter>
    <filter id="filter4182" height="3.141" width="3.2377" color-interpolation-filters="sRGB" y="-1.0705" x="-1.1188">
      <feGaussianBlur id="feGaussianBlur4184" stdDeviation="5.8019302"/>
    </filter>
    <filter id="filter4186" height="3.5381" width="2.4213" color-interpolation-filters="sRGB" y="-1.2691" x="-.71067">
      <feGaussianBlur id="feGaussianBlur4188" stdDeviation="5.8019302"/>
    </filter>
    <filter id="filter4190" height="4.0327" width="2.9645" color-interpolation-filters="sRGB" y="-1.5164" x="-.98224">
      <feGaussianBlur id="feGaussianBlur4192" stdDeviation="5.8019302"/>
    </filter>
    <filter id="filter4194" height="2.6021" width="2.4613" color-interpolation-filters="sRGB" y="-.80104" x="-.73067">
      <feGaussianBlur id="feGaussianBlur4196" stdDeviation="5.8019302"/>
    </filter>
    <filter id="filter4198" height="2.4807" width="2.1023" color-interpolation-filters="sRGB" y="-.74033" x="-.55117">
      <feGaussianBlur id="feGaussianBlur4200" stdDeviation="5.8019302"/>
    </filter>
    <filter id="filter4202" height="3.3646" width="2.4606" color-interpolation-filters="sRGB" y="-1.1823" x="-.73030">
      <feGaussianBlur id="feGaussianBlur4204" stdDeviation="5.8019302"/>
    </filter>
    <filter id="filter4206" height="4.1023" width="3.961" color-interpolation-filters="sRGB" y="-1.5512" x="-1.4805">
      <feGaussianBlur id="feGaussianBlur4208" stdDeviation="5.8019302"/>
    </filter>
    <filter id="filter4210" height="2.4601" width="2.4335" color-interpolation-filters="sRGB" y="-.73005" x="-.71675">
      <feGaussianBlur id="feGaussianBlur4212" stdDeviation="5.8019302"/>
    </filter>
    <filter id="filter4214" height="3.141" width="3.2377" color-interpolation-filters="sRGB" y="-1.0705" x="-1.1188">
      <feGaussianBlur id="feGaussianBlur4216" stdDeviation="5.8019302"/>
    </filter>
    <filter id="filter4218" height="3.5381" width="2.4213" color-interpolation-filters="sRGB" y="-1.2691" x="-.71067">
      <feGaussianBlur id="feGaussianBlur4220" stdDeviation="5.8019302"/>
    </filter>
    <filter id="filter4222" height="4.0327" width="2.9645" color-interpolation-filters="sRGB" y="-1.5164" x="-.98224">
      <feGaussianBlur id="feGaussianBlur4224" stdDeviation="5.8019302"/>
    </filter>
    <filter id="filter4226" height="10.308" width="4.3684" color-interpolation-filters="sRGB" y="-4.654" x="-1.6842">
      <feGaussianBlur id="feGaussianBlur4228" stdDeviation="5.8019302"/>
    </filter>
    <filter id="filter4230" height="3.7106" width="1.6425" color-interpolation-filters="sRGB" y="-1.3553" x="-.32126">
      <feGaussianBlur id="feGaussianBlur4232" stdDeviation="5.8019302"/>
    </filter>
    <filter id="filter4234" height="3.3895" width="2.4509" color-interpolation-filters="sRGB" y="-1.1947" x="-.72544">
      <feGaussianBlur id="feGaussianBlur4236" stdDeviation="5.8019302"/>
    </filter>
    <filter id="filter4574" height="1.5061" width="5.2767" color-interpolation-filters="sRGB" y="-.25305" x="-2.1383">
      <feGaussianBlur id="feGaussianBlur4576" stdDeviation="16.861414"/>
    </filter>
    <filter id="filter4578" height="1.4669" width="2.9793" color-interpolation-filters="sRGB" y="-.23346" x="-.98967">
      <feGaussianBlur id="feGaussianBlur4580" stdDeviation="13.549009"/>
    </filter>
    <filter id="filter4582" height="1.4926" width="3.7636" color-interpolation-filters="sRGB" y="-.24632" x="-1.3818">
      <feGaussianBlur id="feGaussianBlur4584" stdDeviation="16.861414"/>
    </filter>
    <filter id="filter4586" height="1.3703" width="3.179" color-interpolation-filters="sRGB" y="-.18514" x="-1.0895">
      <feGaussianBlur id="feGaussianBlur4588" stdDeviation="16.861414"/>
    </filter>
    <filter id="filter4590" height="1.3643" width="3.6978" color-interpolation-filters="sRGB" y="-.18217" x="-1.3489">
      <feGaussianBlur id="feGaussianBlur4592" stdDeviation="16.861414"/>
    </filter>
    <radialGradient id="radialGradient4653" gradientUnits="userSpaceOnUse" cy="285.82" cx="250.9" gradientTransform="matrix(1.1256 .065953 -.036614 .4505 -29.878 154.99)" r="176.1">
      <stop id="stop3177" style="stop-color:#7c583d" offset="0"/>
      <stop id="stop3179" style="stop-color:#3d2b17" offset="1"/>
    </radialGradient>
    <linearGradient id="linearGradient4655" y2="185.53" xlink:href="#linearGradient3664" gradientUnits="userSpaceOnUse" x2="224.06" y1="389.14" x1="218.75"/>
    <radialGradient id="radialGradient4657" gradientUnits="userSpaceOnUse" cy="213.13" cx="230.38" gradientTransform="matrix(1.3898 .13083 -.087968 .67370 -72.449 43.466)" r="134.67">
      <stop id="stop3574" style="stop-color:#63452e" offset="0"/>
      <stop id="stop3576" style="stop-color:#684e36" offset=".48238"/>
      <stop id="stop3578" style="stop-color:#342411" offset="1"/>
    </radialGradient>
    <linearGradient id="linearGradient4659" y2="139.64" xlink:href="#linearGradient3664" gradientUnits="userSpaceOnUse" x2="252.76" y1="288.03" x1="240.83"/>
  </defs>
  <g id="layer2" transform="translate(5.2369 85.256)">
    <g id="g4620">
      <g id="g3558" transform="matrix(1.3294 0 0 1.5656 -77.331 -154.24)">
        <path id="path2383" style="fill-rule:evenodd;filter:url(#filter3849);fill:#37200e" d="m680 556.65a252.86 90 0 1 1 -505.71 0 252.86 90 0 1 1 505.71 0z" transform="matrix(.65598 0 0 .50686 -32.473 67.71)"/>
        <path id="path3157" style="stroke-linejoin:round;stroke-opacity:.95833;fill-rule:evenodd;stroke:url(#linearGradient4655);stroke-linecap:round;stroke-width:3.4658;fill:url(#radialGradient4653)" d="m206.18 246.25c-42.646 0-91.164 7.5765-117.55 27.382-25.961 19.489-16.932 69.5 8.51 86.86 25.68 17.522 82.224 31.004 147.71 32.068 65.485 1.0645 118.97-4.4705 156.63-32.068 37.656-27.598 25.026-85.168-15.688-100.22l-179.61-14.02z"/>
        <path id="path3341" style="filter:url(#filter3467);fill:#000000" d="m580.33 429.86a95.207 27.527 0 1 1 -190.41 0 95.207 27.527 0 1 1 190.41 0z" transform="matrix(1.443 0 0 1.3303 -447.48 -287.43)"/>
        <path id="path3155" style="stroke-linejoin:round;stroke-opacity:.95833;stroke:url(#linearGradient4659);stroke-linecap:round;stroke-width:3.4658;fill:url(#radialGradient4657)" d="m213.71 207.91c-32.83 0-71.584 8.3282-86.729 21.025-15.439 12.944-19.948 45.853 3.5207 61.644 23.816 16.024 60.931 24.423 111.39 24.102 50.433-0.32167 92.996-4.345 122.89-24.102 29.899-19.757 14.787-60.981-21.603-77.457-37.038-16.769-122.86-23.636-107.24-67.887-44.958 38.112-29.853 70.116 2.5811 76.268"/>
        <path id="path3181" style="opacity:.34921;filter:url(#filter3636);fill-rule:evenodd;fill:#b59b80" d="m146.98 238.18s65.207 18.682 106.57 14.142c41.416-4.5457 66.87-15.465 61.364-26.714-5.5998-11.441-114.44-17.622-85.872-69.003 0.76896 44.733 113.3 54.846 121.55 71.359 7.1254 14.268-67.071 33.669-102.59 33.449-33.547-0.2076-74.06-3.8716-101.02-23.234z"/>
        <path id="path3473" style="opacity:.71032;filter:url(#filter3540);fill:#c3a877" d="m91.404 299.56c3.3087 31.69 73.428 59.344 158.09 59.344 84.666 0 165.56-46.126 148.23-76.174-6.209 25.632-76.31 63.66-152.03 66.265-75.702 2.6046-146.71-26.578-154.3-49.435z"/>
        <path id="path3694" style="opacity:.40873;filter:url(#filter3848);fill:#000000" d="m237.39 183.7a16.92 8.5863 0 1 1 -33.84 0 16.92 8.5863 0 1 1 33.84 0z" transform="matrix(1.9648 0 0 1.4277 -221.32 -41.339)"/>
        <path id="path3883" style="stroke-linejoin:round;filter:url(#filter3959);stroke:#30241e;stroke-linecap:round;stroke-dasharray:30, 30;stroke-width:5;fill:none" d="m441.43 257.71 27.14 39.29-34.28-5.71 37.85 50.71-72.14-37.14 40 92.14l-65-65.714 7.1429 82.143-57.857-73.571-12.857 92.857-52.143-94.286-20.714 92.143-36.429-82.857-37.143 75-10-81.429-65.714 56.429 33.571-79.286-83.571 35.714 49.286-56.429-60.714 3.5714 25-27.143-11.429-2.1429" transform="matrix(.75225 0 0 .63872 58.172 106.18)"/>
        <path id="path3897" style="opacity:.7;stroke-linejoin:round;filter:url(#filter3935);stroke:#2f211c;stroke-linecap:round;stroke-dasharray:24, 24;stroke-width:4;fill:none" d="m157.14 174.14-35 112.86 2.86-97.14l-42.857 49.286 96.429-58.571 4.2857 129.29-38.571-45 62.143-90.714 4.2857 136.43 50.71-13.58-41.43-97.14 94.29 105.71-65.72-115 142.14 94.29 16.43-32.15-41.43-70.71-25.71 95.71-13.57-62.85-50.72-25 69.29-12.15-95-5.71 65-17.857-42.857-16.429-45 24.286-17.857-35.714 28.571-6.4286c-3.1505-5.9524-23.533-9.0476-16.429-15l5.7143-16.429" transform="matrix(.75225 0 0 .63872 58.172 106.18)"/>
      </g>
      <path id="path3963" style="opacity:.68212;block-progression:tb;text-indent:0;filter:url(#filter4234);color:#000000;text-transform:none;fill:#af9f8b" d="m149.75 208.94c15.478 6.1074-2.2909 10.702-9.0774 6.9688 8.6297 13.396 32.739-6.0967 9.0774-6.9688zm-4.3438 0.21875c-9.6123 4.1483 6.3791 3.4271 0 0z"/>
      <path id="path3965" style="opacity:.68212;block-progression:tb;text-indent:0;filter:url(#filter4230);color:#000000;text-transform:none;fill:#a89072" d="m232.19 234.94c1.8085 6.4521 35.047 1.7187 10.328 0.29032-3.4291-0.40747-6.8844-0.31401-10.328-0.29032zm-5.375 0.28125c-9.1781 2.011 5.9333 3.5944 0 0zm-8.5 1.125c-12.418 9.6082 17.776 8.9331-0.65193 2.8536 3.5888 1.3155 4.2658-4.7978 0.65193-2.8536zm37.43 2.28c-7.3618 4.9501-29.672 5.8843-6.4805 5.836 2.6367 2.0199 14.664-6.7039 6.4805-5.836zm-26.125 4.4375c1.1404 6.0778 7.9065-3.1514 0 0z"/>
      <path id="path3967" style="opacity:.68212;block-progression:tb;text-indent:0;filter:url(#filter4226);color:#000000;text-transform:none;fill:#af9f8b" d="m315.5 213.5c-11.339 6.5129 16.774 0.42745 0 0z"/>
      <path id="path3969" style="opacity:.68212;block-progression:tb;text-indent:0;filter:url(#filter4222);color:#000000;text-transform:none;fill:#9b6832" d="m305.16 241.75c1.0222 6.8251 8.4411-3.1427 0 0zm-4.5625 0.8125c-8.3968 18.474 27.022-3.1515 6.2054 5.9948-13.365 0.45598-0.13246-4.6995-6.2054-5.9948z"/>
      <path id="path3971" style="opacity:.68212;block-progression:tb;text-indent:0;filter:url(#filter4218);color:#000000;text-transform:none;fill:#9d8970" d="m151.25 260.34c16.479 6.1328-2.4659 8.9321-8.8438 7.0827 9.6255 11.651 33.345-6.533 8.8438-7.0827zm-4.7812 0.3125c-9.0177 4.6646 8.0794 2.6889 0 0z"/>
      <path id="path3973" style="opacity:.68212;block-progression:tb;text-indent:0;filter:url(#filter4214);color:#000000;text-transform:none;fill:#bb835c" d="m285.99 168.91c-5.7609-4.5135-4.8258 8.2459 0 0zm0.54266-4.4956c-6.332-16.205-19.28 7.9075-7.976 3.8948-7.5332-11.451 5.6156-3.5867 7.976-3.8948z"/>
      <path id="path3975" style="opacity:.68212;block-progression:tb;text-indent:0;filter:url(#filter4210);color:#000000;text-transform:none;fill:#af9f8b" d="m234.78 124.27c-14.16-8.6598 19.054 22.259-3.4175 9.3542-20.772-19.694 11.897 21.169 10.45-0.65861-1.3855-3.5653-4.234-6.2352-7.0324-8.6955zm-9.1152-3.7615c-9.4348 4.4686 5.3194 3.8379 0 0z"/>
      <path id="path3985" style="opacity:.68212;block-progression:tb;text-indent:0;filter:url(#filter4206);color:#000000;text-transform:none;fill:#af9f8b" d="m373.22 212.26c-21.811-3.2118 6.6103 21.044 0 0z"/>
      <path id="path4412" style="opacity:.68212;block-progression:tb;text-indent:0;filter:url(#filter4202);color:#000000;text-transform:none;fill:#856b4f" d="m438.99 323.66c15.478 6.1074-2.2909 10.702-9.0774 6.9688 8.4664 13.853 32.524-6.5938 9.0774-6.9688zm-4.3438 0.21875c-9.6123 4.1483 6.3791 3.4271 0 0z"/>
      <path id="path4414" style="opacity:.68212;block-progression:tb;text-indent:0;filter:url(#filter4198);color:#000000;text-transform:none;fill:#856b4f" d="m307.06 359.81c-21.96 17.258 10.229-1.5275 0 0zm3.3167-1.4276c1.6438 6.3797 3.6034-5.3591 0 0zm3.2466-1.6349c15.302-3.2052-7.432 15.815 7.1162 4.9586 5.9623-6.606-1.9179-9.9369-7.1162-4.9586zm-15.26 11.26c-2.9921 8.1721 4.1908 0.35019 0 0zm1.7344 2.8565c5.5874 8.7434 17.516-11.09 0 0zm11.249-4.7521c-2.3414 6.2383 5.3264-1.9437 0 0z"/>
      <path id="path4416" style="opacity:.68212;block-progression:tb;text-indent:0;filter:url(#filter4194);color:#000000;text-transform:none;fill:#43372b" d="m233.37 367.06c-22.276 9.5023 16.438 30.267 11.685 5.2729-1.4201-5.5908-7.0261-5.9157-11.685-5.2729z"/>
      <path id="path4418" style="opacity:.68212;block-progression:tb;text-indent:0;filter:url(#filter4190);color:#000000;text-transform:none;fill:#856b4f" d="m418.68 380.04c1.0222 6.8251 8.4411-3.1427 0 0zm-4.5625 0.8125c-8.3968 18.474 27.022-3.1516 6.2054 5.9949-13.365 0.45632-0.1307-4.7015-6.2054-5.9949z"/>
      <path id="path4420" style="opacity:.68212;block-progression:tb;text-indent:0;filter:url(#filter4186);color:#000000;text-transform:none;fill:#856b4f" d="m142.63 350.06c16.479 6.1328-2.4659 8.9321-8.8438 7.0827 9.6258 11.651 33.345-6.5338 8.8438-7.0827zm-4.7812 0.3125c-9.0177 4.6646 8.0794 2.6889 0 0z"/>
      <path id="path4422" style="opacity:.68212;block-progression:tb;text-indent:0;filter:url(#filter4182);color:#000000;text-transform:none;fill:#856b4f" d="m278.08 450.05c-5.7611-4.5136-4.8255 8.2461 0 0zm0.54266-4.4956c-6.332-16.205-19.28 7.9075-7.976 3.8948-7.5333-11.45 5.6156-3.5872 7.976-3.8948z"/>
      <path id="path4424" style="opacity:.3;block-progression:tb;text-indent:0;filter:url(#filter4178);color:#000000;text-transform:none;fill:#af9f8b" d="m366.16 297.83c-4.3558 2.6356 6.4267 0.7942 0 0zm3.0528 1.0212c11.033 6.9084-17.997 3.5741 3.5599 5.4191 6.5032-1.3889-1.5669-5.9792-3.5599-5.4191zm-5.8873-1.4612c-14.537 0.0787-5.9907 6.5386 0 0zm-3.5661 3.9683c-1.2239 3.6777 5.7561-0.82083 0 0z"/>
      <path id="path4426" style="opacity:.68212;block-progression:tb;text-indent:0;filter:url(#filter4174);color:#000000;text-transform:none;fill:#856b4f" d="m66.742 364.83c-21.811-3.2118 6.6099 21.044 0 0z"/>
      <path id="path4480" style="opacity:.80237;fill-rule:evenodd;filter:url(#filter4590);fill:#ad9171" d="m146.43 228.29-22.86-102.31 21.31-51.943-13.45-67.894 22.14 65.766-22.14 57.001z" transform="matrix(1 0 0 1.1451 0 -44.119)"/>
      <path id="path4482" style="opacity:.80237;fill-rule:evenodd;filter:url(#filter4586);fill:#ad9171" d="m403.57 254-22.857-49.179 19.286-50.271-22.143-51.364 22.143-67.757-13.571 65.571 28.571 54.643-25.714 44.807 14.286 53.55z" transform="matrix(1 0 0 1.1451 -44.286 27.309)"/>
      <path id="path4484" style="opacity:.80237;fill-rule:evenodd;filter:url(#filter4582);fill:#ad9171" d="m300.71 171.86 7.1428-38.571-23.571-55.714 11.429-70-5 65.714 22.857 57.143-12.857 41.429z" transform="matrix(1 0 0 1.1451 0 -44.119)"/>
      <path id="path4486" style="opacity:.80237;fill-rule:evenodd;filter:url(#filter4578);fill:#ad9171" d="m61.429 227.57-10-35.714 10-25.714l-11.429-15.01 14.286-35.71-24.286-27.144 30 23.574-10 37.14 12.857 17.857-17.143 25 5.7143 35.714z" transform="matrix(1 0 0 1.8166 22.857 -75.835)"/>
      <path id="path4600" style="opacity:.80237;fill-rule:evenodd;filter:url(#filter4574);fill:#ad9171" d="m189.4 164.46 9.1211-37.527-4.6933-44.126 11.766-78.264-18.925 80.328 3.9789 44.137-1.2484 35.452z" transform="matrix(1 0 0 1.1451 0 -44.119)"/>
    </g>
  </g>
  <metadata>
    <rdf:RDF>
      <cc:Work>
        <dc:format>image/svg+xml</dc:format>
        <dc:type rdf:resource="http://purl.org/dc/dcmitype/StillImage"/>
        <cc:license rdf:resource="http://creativecommons.org/licenses/publicdomain/"/>
        <dc:publisher>
          <cc:Agent rdf:about="http://openclipart.org/">
            <dc:title>Openclipart</dc:title>
          </cc:Agent>
        </dc:publisher>
        <dc:title>Turd</dc:title>
        <dc:date>2011-03-14T13:41:58</dc:date>
        <dc:description/>
        <dc:source>https://openclipart.org/detail/127417/turd-by-doofi-127417</dc:source>
        <dc:creator>
          <cc:Agent>
            <dc:title>DooFi</dc:title>
          </cc:Agent>
        </dc:creator>
        <dc:subject>
          <rdf:Bag>
            <rdf:li>2g1c</rdf:li>
            <rdf:li>crap</rdf:li>
            <rdf:li>dirt</rdf:li>
            <rdf:li>dogshit</rdf:li>
            <rdf:li>ico</rdf:li>
            <rdf:li>icon</rdf:li>
            <rdf:li>icons</rdf:li>
            <rdf:li>inkscape</rdf:li>
            <rdf:li>pile</rdf:li>
            <rdf:li>poo</rdf:li>
            <rdf:li>pooh</rdf:li>
            <rdf:li>shit</rdf:li>
            <rdf:li>shite</rdf:li>
            <rdf:li>skat</rdf:li>
            <rdf:li>turd</rdf:li>
            <rdf:li>vector</rdf:li>
          </rdf:Bag>
        </dc:subject>
      </cc:Work>
      <cc:License rdf:about="http://creativecommons.org/licenses/publicdomain/">
        <cc:permits rdf:resource="http://creativecommons.org/ns#Reproduction"/>
        <cc:permits rdf:resource="http://creativecommons.org/ns#Distribution"/>
        <cc:permits rdf:resource="http://creativecommons.org/ns#DerivativeWorks"/>
      </cc:License>
    </rdf:RDF>
  </metadata>
</svg>
